<?xml version="1.0" encoding="utf-8"?>
<!-- Generator: Adobe Illustrator 24.3.0, SVG Export Plug-In . SVG Version: 6.00 Build 0)  -->
<svg version="1.1" id="Capa_1" xmlns="http://www.w3.org/2000/svg" xmlns:xlink="http://www.w3.org/1999/xlink" x="0px" y="0px"
	 viewBox="0 0 1080 1080" style="enable-background:new 0 0 1080 1080;" xml:space="preserve">
<g>
	<g>
		<path d="M90.54,519.87v40.26c0,0.48-0.36,0.84-0.84,0.84h-4.32c-0.48,0-0.84-0.36-0.84-0.84v-33.42c0-0.48-0.66-0.54-0.78-0.12
			l-11.34,33.84c-0.12,0.3-0.48,0.54-0.84,0.54H65.1c-0.3,0-0.66-0.24-0.78-0.54l-11.64-33.84c-0.12-0.42-0.78-0.36-0.78,0.12v33.42
			c0,0.48-0.36,0.84-0.84,0.84h-4.32c-0.48,0-0.84-0.36-0.84-0.84v-40.26c0-0.48,0.36-0.84,0.84-0.84h8.52
			c0.36,0,0.66,0.24,0.78,0.54l11.94,34.62c0.12,0.36,0.66,0.36,0.78,0l11.7-34.62c0.12-0.3,0.42-0.54,0.78-0.54h8.46
			C90.18,519.03,90.54,519.39,90.54,519.87z"/>
		<path d="M143.64,560.97h-4.44c-0.36,0-0.66-0.24-0.78-0.54l-3.78-9.72c-0.12-0.3-0.42-0.54-0.78-0.54h-18.84
			c-0.36,0-0.66,0.24-0.78,0.54l-3.78,9.72c-0.12,0.3-0.42,0.54-0.78,0.54h-4.32c-0.6,0-1.02-0.6-0.78-1.14l15.96-40.26
			c0.12-0.36,0.42-0.54,0.78-0.54h6.48c0.36,0,0.66,0.18,0.78,0.54l15.84,40.26C144.66,560.37,144.24,560.97,143.64,560.97z
			 M132.12,544.23l-7.32-18.72c-0.12-0.3-0.6-0.3-0.72,0l-7.32,18.72c-0.12,0.24,0.06,0.54,0.36,0.54h14.64
			C132.06,544.77,132.24,544.47,132.12,544.23z"/>
		<path d="M184.68,519.87v3.72c0,0.48-0.42,0.84-0.84,0.84h-13.32c-0.48,0-0.84,0.36-0.84,0.84v34.92c0,0.42-0.36,0.78-0.84,0.78
			h-4.32c-0.48,0-0.84-0.36-0.84-0.78v-34.92c0-0.48-0.36-0.84-0.84-0.84h-13.32c-0.48,0-0.84-0.36-0.84-0.84v-3.72
			c0-0.48,0.36-0.84,0.84-0.84h34.32C184.26,519.03,184.68,519.39,184.68,519.87z"/>
		<path d="M229.56,556.41v3.72c0,0.48-0.36,0.84-0.84,0.84h-27.78c-1.38,0-2.52-1.14-2.52-2.52v-36.9c0-1.38,1.14-2.52,2.52-2.52
			h27.18c0.48,0,0.84,0.36,0.84,0.84v3.72c0,0.48-0.36,0.84-0.84,0.84h-22.86c-0.48,0-0.84,0.36-0.84,0.84v10.62
			c0,0.42,0.36,0.84,0.84,0.84h19.26c0.48,0,0.84,0.36,0.84,0.78v3.78c0,0.42-0.36,0.78-0.84,0.78h-19.26
			c-0.48,0-0.84,0.42-0.84,0.84v11.82c0,0.48,0.36,0.84,0.84,0.84h23.46C229.2,555.57,229.56,555.93,229.56,556.41z"/>
		<path d="M275.22,543.57v16.56c0,0.48-0.36,0.84-0.84,0.84h-4.32c-0.42,0-0.84-0.36-0.84-0.84v-15.12c0-0.42-0.36-0.78-0.78-0.78
			h-2.82c-0.18-0.06-0.36-0.06-0.6-0.06h-13.5c-0.48,0-0.84,0.42-0.84,0.84v15.12c0,0.48-0.36,0.84-0.84,0.84h-4.32
			c-0.48,0-0.84-0.36-0.84-0.84v-38.58c0-1.38,1.14-2.52,2.52-2.52h15.48c7.68,0,13.14,4.86,13.14,11.4c0,5.28-2.94,9.42-6.9,10.62
			h3.84C274.14,541.05,275.22,542.19,275.22,543.57z M269.82,531.33c0-4.5-3-6.9-8.04-6.9h-10.26c-0.48,0-0.84,0.36-0.84,0.84v12.72
			c0,0.42,0.36,0.84,0.84,0.84h10.26C266.82,538.83,269.82,535.59,269.82,531.33z"/>
		<path d="M298.32,519.87v40.26c0,0.48-0.36,0.84-0.84,0.84h-4.32c-0.48,0-0.84-0.36-0.84-0.84v-40.26c0-0.48,0.36-0.84,0.84-0.84
			h4.32C297.96,519.03,298.32,519.39,298.32,519.87z"/>
		<path d="M351.42,560.97h-4.44c-0.36,0-0.66-0.24-0.78-0.54l-3.78-9.72c-0.12-0.3-0.42-0.54-0.78-0.54H322.8
			c-0.36,0-0.66,0.24-0.78,0.54l-3.78,9.72c-0.12,0.3-0.42,0.54-0.78,0.54h-4.32c-0.6,0-1.02-0.6-0.78-1.14l15.96-40.26
			c0.12-0.36,0.42-0.54,0.78-0.54h6.48c0.36,0,0.66,0.18,0.78,0.54l15.84,40.26C352.44,560.37,352.02,560.97,351.42,560.97z
			 M339.9,544.23l-7.32-18.72c-0.12-0.3-0.6-0.3-0.72,0l-7.32,18.72c-0.12,0.24,0.06,0.54,0.36,0.54h14.64
			C339.84,544.77,340.02,544.47,339.9,544.23z"/>
		<path d="M372.3,519.87v40.26c0,0.48-0.36,0.84-0.84,0.84h-4.32c-0.48,0-0.84-0.36-0.84-0.84v-40.26c0-0.48,0.36-0.84,0.84-0.84
			h4.32C371.94,519.03,372.3,519.39,372.3,519.87z"/>
		<path d="M419.88,549.63c0,7.26-6.3,11.94-15.48,11.94c-9.72,0-15.72-4.56-16.44-13.2c-0.06-0.48,0.36-0.9,0.84-0.9h4.32
			c0.42,0,0.78,0.36,0.78,0.78c0.42,5.16,4.68,7.92,10.74,7.92h0.6c5.46,0,8.64-2.82,8.64-6.3c0-3.42-2.1-5.34-6.54-6.24l-6.72-1.38
			c-6.9-1.44-11.88-5.28-11.88-11.82c0-6.6,5.94-12,14.94-12c8.88,0,14.82,4.8,15.48,12.3c0,0.48-0.36,0.9-0.84,0.9H414
			c-0.42,0-0.78-0.3-0.84-0.72c-0.6-4.32-4.26-7.08-9.18-7.08h-0.6c-5.1,0-8.7,2.76-8.7,6.54c0,3.12,3.48,5.16,7.08,5.88l6.72,1.32
			C416.04,539.07,419.88,543.09,419.88,549.63z"/>
		<path d="M494.46,556.41v3.72c0,0.48-0.36,0.84-0.84,0.84h-27.78c-1.38,0-2.52-1.14-2.52-2.52v-36.9c0-1.38,1.14-2.52,2.52-2.52
			h27.18c0.48,0,0.84,0.36,0.84,0.84v3.72c0,0.48-0.36,0.84-0.84,0.84h-22.86c-0.48,0-0.84,0.36-0.84,0.84v10.62
			c0,0.42,0.36,0.84,0.84,0.84h19.26c0.48,0,0.84,0.36,0.84,0.78v3.78c0,0.42-0.36,0.78-0.84,0.78h-19.26
			c-0.48,0-0.84,0.42-0.84,0.84v11.82c0,0.48,0.36,0.84,0.84,0.84h23.46C494.1,555.57,494.46,555.93,494.46,556.41z"/>
		<path d="M554.22,519.87v40.26c0,0.48-0.36,0.84-0.84,0.84h-4.32c-0.48,0-0.84-0.36-0.84-0.84v-33.42c0-0.48-0.66-0.54-0.78-0.12
			l-11.34,33.84c-0.12,0.3-0.48,0.54-0.84,0.54h-6.48c-0.3,0-0.66-0.24-0.78-0.54l-11.64-33.84c-0.12-0.42-0.78-0.36-0.78,0.12
			v33.42c0,0.48-0.36,0.84-0.84,0.84h-4.32c-0.48,0-0.84-0.36-0.84-0.84v-40.26c0-0.48,0.36-0.84,0.84-0.84h8.52
			c0.36,0,0.66,0.24,0.78,0.54l11.94,34.62c0.12,0.36,0.66,0.36,0.78,0l11.7-34.62c0.12-0.3,0.42-0.54,0.78-0.54h8.46
			C553.86,519.03,554.22,519.39,554.22,519.87z"/>
		<path d="M643.74,519.87v40.26c0,0.48-0.36,0.84-0.84,0.84h-4.32c-0.48,0-0.84-0.36-0.84-0.84v-33.42c0-0.48-0.66-0.54-0.78-0.12
			l-11.34,33.84c-0.12,0.3-0.48,0.54-0.84,0.54h-6.48c-0.3,0-0.66-0.24-0.78-0.54l-11.64-33.84c-0.12-0.42-0.78-0.36-0.78,0.12
			v33.42c0,0.48-0.36,0.84-0.84,0.84h-4.32c-0.48,0-0.84-0.36-0.84-0.84v-40.26c0-0.48,0.36-0.84,0.84-0.84h8.52
			c0.36,0,0.66,0.24,0.78,0.54l11.94,34.62c0.12,0.36,0.66,0.36,0.78,0l11.7-34.62c0.12-0.3,0.42-0.54,0.78-0.54h8.46
			C643.38,519.03,643.74,519.39,643.74,519.87z"/>
		<path d="M702.18,540.03c0,11.88-9.66,21.54-21.54,21.54s-21.54-9.66-21.54-21.54c0-11.88,9.66-21.54,21.54-21.54
			S702.18,528.15,702.18,540.03z M696.18,540.03c0-8.58-6.96-15.54-15.54-15.54c-8.58,0-15.54,6.96-15.54,15.54
			c0,8.58,6.96,15.54,15.54,15.54C689.22,555.57,696.18,548.61,696.18,540.03z"/>
		<path d="M752.7,520.17l-15.84,40.26c-0.12,0.36-0.42,0.54-0.78,0.54h-6.66c-0.3,0-0.6-0.18-0.78-0.54l-16.08-40.26
			c-0.24-0.54,0.18-1.14,0.78-1.14h4.56c0.3,0,0.66,0.24,0.78,0.54l14.1,35.52c0.06,0.18,0.3,0.18,0.36,0l13.5-35.52
			c0.12-0.3,0.42-0.54,0.78-0.54h4.5C752.52,519.03,752.88,519.63,752.7,520.17z"/>
		<path d="M772.68,519.87v40.26c0,0.48-0.36,0.84-0.84,0.84h-4.32c-0.48,0-0.84-0.36-0.84-0.84v-40.26c0-0.48,0.36-0.84,0.84-0.84
			h4.32C772.32,519.03,772.68,519.39,772.68,519.87z"/>
		<path d="M834.6,519.87v40.26c0,0.48-0.36,0.84-0.84,0.84h-4.32c-0.48,0-0.84-0.36-0.84-0.84v-33.42c0-0.48-0.66-0.54-0.78-0.12
			l-11.34,33.84c-0.12,0.3-0.48,0.54-0.84,0.54h-6.48c-0.3,0-0.66-0.24-0.78-0.54l-11.64-33.84c-0.12-0.42-0.78-0.36-0.78,0.12
			v33.42c0,0.48-0.36,0.84-0.84,0.84h-4.32c-0.48,0-0.84-0.36-0.84-0.84v-40.26c0-0.48,0.36-0.84,0.84-0.84h8.52
			c0.36,0,0.66,0.24,0.78,0.54l11.94,34.62c0.12,0.36,0.66,0.36,0.78,0l11.7-34.62c0.12-0.3,0.42-0.54,0.78-0.54h8.46
			C834.24,519.03,834.6,519.39,834.6,519.87z"/>
		<path d="M883.02,556.41v3.72c0,0.48-0.36,0.84-0.84,0.84H854.4c-1.38,0-2.52-1.14-2.52-2.52v-36.9c0-1.38,1.14-2.52,2.52-2.52
			h27.18c0.48,0,0.84,0.36,0.84,0.84v3.72c0,0.48-0.36,0.84-0.84,0.84h-22.86c-0.48,0-0.84,0.36-0.84,0.84v10.62
			c0,0.42,0.36,0.84,0.84,0.84h19.26c0.48,0,0.84,0.36,0.84,0.78v3.78c0,0.42-0.36,0.78-0.84,0.78h-19.26
			c-0.48,0-0.84,0.42-0.84,0.84v11.82c0,0.48,0.36,0.84,0.84,0.84h23.46C882.66,555.57,883.02,555.93,883.02,556.41z"/>
		<path d="M931.98,519.87v40.26c0,0.48-0.36,0.84-0.84,0.84h-6.54c-0.6,0-1.2-0.3-1.5-0.84l-18.18-32.46
			c-0.24-0.36-0.78-0.24-0.78,0.18v32.28c0,0.48-0.36,0.84-0.84,0.84h-4.32c-0.48,0-0.84-0.36-0.84-0.84v-40.26
			c0-0.48,0.36-0.84,0.84-0.84h6.6c0.6,0,1.14,0.3,1.44,0.84l18.18,32.52c0.24,0.36,0.78,0.24,0.78-0.18v-32.34
			c0-0.48,0.42-0.84,0.84-0.84h4.32C931.62,519.03,931.98,519.39,931.98,519.87z"/>
		<path d="M981.78,519.87v3.72c0,0.48-0.42,0.84-0.84,0.84h-13.32c-0.48,0-0.84,0.36-0.84,0.84v34.92c0,0.42-0.36,0.78-0.84,0.78
			h-4.32c-0.48,0-0.84-0.36-0.84-0.78v-34.92c0-0.48-0.36-0.84-0.84-0.84h-13.32c-0.48,0-0.84-0.36-0.84-0.84v-3.72
			c0-0.48,0.36-0.84,0.84-0.84h34.32C981.36,519.03,981.78,519.39,981.78,519.87z"/>
		<path d="M1034.09,540.03c0,11.88-9.66,21.54-21.54,21.54s-21.54-9.66-21.54-21.54c0-11.88,9.66-21.54,21.54-21.54
			S1034.09,528.15,1034.09,540.03z M1028.09,540.03c0-8.58-6.96-15.54-15.54-15.54c-8.58,0-15.54,6.96-15.54,15.54
			c0,8.58,6.96,15.54,15.54,15.54C1021.14,555.57,1028.09,548.61,1028.09,540.03z"/>
	</g>
</g>
</svg>
