<?xml version="1.0" encoding="utf-8"?>
<!-- Generator: Adobe Illustrator 24.3.0, SVG Export Plug-In . SVG Version: 6.00 Build 0)  -->
<svg version="1.1" id="Capa_1" xmlns="http://www.w3.org/2000/svg" xmlns:xlink="http://www.w3.org/1999/xlink" x="0px" y="0px"
	 viewBox="0 0 1080 1080" style="enable-background:new 0 0 1080 1080;" xml:space="preserve">
<g>
	<g>
		<path d="M68.58,520.54v38.92c0,0.46-0.35,0.81-0.81,0.81h-4.18c-0.46,0-0.81-0.35-0.81-0.81v-32.31c0-0.46-0.64-0.52-0.75-0.12
			l-10.96,32.71c-0.12,0.29-0.46,0.52-0.81,0.52h-6.26c-0.29,0-0.64-0.23-0.75-0.52l-11.25-32.71c-0.12-0.41-0.75-0.35-0.75,0.12
			v32.31c0,0.46-0.35,0.81-0.81,0.81h-4.18c-0.46,0-0.81-0.35-0.81-0.81v-38.92c0-0.46,0.35-0.81,0.81-0.81h8.24
			c0.35,0,0.64,0.23,0.75,0.52l11.54,33.47c0.12,0.35,0.64,0.35,0.75,0l11.31-33.47c0.12-0.29,0.41-0.52,0.75-0.52h8.18
			C68.23,519.73,68.58,520.08,68.58,520.54z"/>
		<path d="M119.91,560.27h-4.29c-0.35,0-0.64-0.23-0.75-0.52l-3.65-9.4c-0.12-0.29-0.41-0.52-0.75-0.52H92.24
			c-0.35,0-0.64,0.23-0.75,0.52l-3.65,9.4c-0.12,0.29-0.41,0.52-0.75,0.52h-4.18c-0.58,0-0.99-0.58-0.75-1.1l15.43-38.92
			c0.12-0.35,0.41-0.52,0.75-0.52h6.26c0.35,0,0.64,0.17,0.75,0.52l15.31,38.92C120.9,559.69,120.49,560.27,119.91,560.27z
			 M108.77,544.09l-7.08-18.1c-0.12-0.29-0.58-0.29-0.7,0l-7.08,18.1c-0.12,0.23,0.06,0.52,0.35,0.52h14.15
			C108.72,544.61,108.89,544.32,108.77,544.09z"/>
		<path d="M159.58,520.54v3.6c0,0.46-0.41,0.81-0.81,0.81h-12.88c-0.46,0-0.81,0.35-0.81,0.81v33.75c0,0.41-0.35,0.75-0.81,0.75
			h-4.18c-0.46,0-0.81-0.35-0.81-0.75v-33.75c0-0.46-0.35-0.81-0.81-0.81h-12.88c-0.46,0-0.81-0.35-0.81-0.81v-3.6
			c0-0.46,0.35-0.81,0.81-0.81h33.18C159.18,519.73,159.58,520.08,159.58,520.54z"/>
		<path d="M202.97,555.86v3.6c0,0.46-0.35,0.81-0.81,0.81H175.3c-1.33,0-2.44-1.1-2.44-2.44v-35.67c0-1.33,1.1-2.44,2.44-2.44h26.27
			c0.46,0,0.81,0.35,0.81,0.81v3.6c0,0.46-0.35,0.81-0.81,0.81h-22.1c-0.46,0-0.81,0.35-0.81,0.81v10.27c0,0.41,0.35,0.81,0.81,0.81
			h18.62c0.46,0,0.81,0.35,0.81,0.75v3.65c0,0.41-0.35,0.75-0.81,0.75h-18.62c-0.46,0-0.81,0.41-0.81,0.81v11.43
			c0,0.46,0.35,0.81,0.81,0.81h22.68C202.62,555.05,202.97,555.4,202.97,555.86z"/>
		<path d="M247.1,543.45v16.01c0,0.46-0.35,0.81-0.81,0.81h-4.18c-0.41,0-0.81-0.35-0.81-0.81v-14.62c0-0.41-0.35-0.75-0.75-0.75
			h-2.73c-0.17-0.06-0.35-0.06-0.58-0.06h-13.05c-0.46,0-0.81,0.41-0.81,0.81v14.62c0,0.46-0.35,0.81-0.81,0.81h-4.18
			c-0.46,0-0.81-0.35-0.81-0.81v-37.29c0-1.33,1.1-2.44,2.44-2.44h14.96c7.42,0,12.7,4.7,12.7,11.02c0,5.1-2.84,9.11-6.67,10.27
			h3.71C246.06,541.01,247.1,542.12,247.1,543.45z M241.88,531.62c0-4.35-2.9-6.67-7.77-6.67h-9.92c-0.46,0-0.81,0.35-0.81,0.81
			v12.29c0,0.41,0.35,0.81,0.81,0.81h9.92C238.98,538.87,241.88,535.74,241.88,531.62z"/>
		<path d="M269.43,520.54v38.92c0,0.46-0.35,0.81-0.81,0.81h-4.18c-0.46,0-0.81-0.35-0.81-0.81v-38.92c0-0.46,0.35-0.81,0.81-0.81
			h4.18C269.08,519.73,269.43,520.08,269.43,520.54z"/>
		<path d="M320.76,560.27h-4.29c-0.35,0-0.64-0.23-0.75-0.52l-3.65-9.4c-0.12-0.29-0.41-0.52-0.75-0.52H293.1
			c-0.35,0-0.64,0.23-0.75,0.52l-3.65,9.4c-0.12,0.29-0.41,0.52-0.75,0.52h-4.18c-0.58,0-0.99-0.58-0.75-1.1l15.43-38.92
			c0.12-0.35,0.41-0.52,0.75-0.52h6.26c0.35,0,0.64,0.17,0.75,0.52l15.31,38.92C321.75,559.69,321.34,560.27,320.76,560.27z
			 M309.63,544.09l-7.08-18.1c-0.12-0.29-0.58-0.29-0.7,0l-7.08,18.1c-0.12,0.23,0.06,0.52,0.35,0.52h14.15
			C309.57,544.61,309.74,544.32,309.63,544.09z"/>
		<path d="M361.36,555.86v3.6c0,0.46-0.41,0.81-0.81,0.81h-22.97c-1.33,0-2.44-1.1-2.44-2.44v-37.29c0-0.46,0.35-0.81,0.81-0.81
			h4.18c0.46,0,0.81,0.35,0.81,0.81v33.7c0,0.46,0.35,0.81,0.81,0.81h18.79C360.96,555.05,361.36,555.4,361.36,555.86z"/>
		<path d="M404.8,555.86v3.6c0,0.46-0.35,0.81-0.81,0.81h-26.85c-1.33,0-2.44-1.1-2.44-2.44v-35.67c0-1.33,1.1-2.44,2.44-2.44h26.27
			c0.46,0,0.81,0.35,0.81,0.81v3.6c0,0.46-0.35,0.81-0.81,0.81h-22.1c-0.46,0-0.81,0.35-0.81,0.81v10.27c0,0.41,0.35,0.81,0.81,0.81
			h18.62c0.46,0,0.81,0.35,0.81,0.75v3.65c0,0.41-0.35,0.75-0.81,0.75h-18.62c-0.46,0-0.81,0.41-0.81,0.81v11.43
			c0,0.46,0.35,0.81,0.81,0.81h22.68C404.46,555.05,404.8,555.4,404.8,555.86z"/>
		<path d="M448.71,549.31c0,7.02-6.09,11.54-14.96,11.54c-9.4,0-15.2-4.41-15.89-12.76c-0.06-0.46,0.35-0.87,0.81-0.87h4.18
			c0.41,0,0.75,0.35,0.75,0.75c0.41,4.99,4.52,7.66,10.38,7.66h0.58c5.28,0,8.35-2.73,8.35-6.09c0-3.31-2.03-5.16-6.32-6.03
			l-6.5-1.33c-6.67-1.39-11.48-5.1-11.48-11.43c0-6.38,5.74-11.6,14.44-11.6c8.58,0,14.33,4.64,14.96,11.89
			c0,0.46-0.35,0.87-0.81,0.87h-4.18c-0.41,0-0.75-0.29-0.81-0.7c-0.58-4.18-4.12-6.84-8.87-6.84h-0.58c-4.93,0-8.41,2.67-8.41,6.32
			c0,3.02,3.36,4.99,6.84,5.68l6.5,1.28C445,539.1,448.71,542.99,448.71,549.31z"/>
		<path d="M520.8,555.86v3.6c0,0.46-0.35,0.81-0.81,0.81h-26.85c-1.33,0-2.44-1.1-2.44-2.44v-35.67c0-1.33,1.1-2.44,2.44-2.44h26.27
			c0.46,0,0.81,0.35,0.81,0.81v3.6c0,0.46-0.35,0.81-0.81,0.81h-22.1c-0.46,0-0.81,0.35-0.81,0.81v10.27c0,0.41,0.35,0.81,0.81,0.81
			h18.62c0.46,0,0.81,0.35,0.81,0.75v3.65c0,0.41-0.35,0.75-0.81,0.75h-18.62c-0.46,0-0.81,0.41-0.81,0.81v11.43
			c0,0.46,0.35,0.81,0.81,0.81h22.68C520.45,555.05,520.8,555.4,520.8,555.86z"/>
		<path d="M568.13,520.54v38.92c0,0.46-0.35,0.81-0.81,0.81h-6.32c-0.58,0-1.16-0.29-1.45-0.81l-17.57-31.38
			c-0.23-0.35-0.75-0.23-0.75,0.17v31.2c0,0.46-0.35,0.81-0.81,0.81h-4.18c-0.46,0-0.81-0.35-0.81-0.81v-38.92
			c0-0.46,0.35-0.81,0.81-0.81h6.38c0.58,0,1.1,0.29,1.39,0.81l17.57,31.44c0.23,0.35,0.75,0.23,0.75-0.17v-31.26
			c0-0.46,0.41-0.81,0.81-0.81h4.18C567.78,519.73,568.13,520.08,568.13,520.54z"/>
		<path d="M654.72,520.54v38.92c0,0.46-0.35,0.81-0.81,0.81h-4.18c-0.46,0-0.81-0.35-0.81-0.81v-32.31c0-0.46-0.64-0.52-0.75-0.12
			l-10.96,32.71c-0.12,0.29-0.46,0.52-0.81,0.52h-6.26c-0.29,0-0.64-0.23-0.75-0.52l-11.25-32.71c-0.12-0.41-0.75-0.35-0.75,0.12
			v32.31c0,0.46-0.35,0.81-0.81,0.81h-4.18c-0.46,0-0.81-0.35-0.81-0.81v-38.92c0-0.46,0.35-0.81,0.81-0.81h8.24
			c0.35,0,0.64,0.23,0.75,0.52l11.54,33.47c0.12,0.35,0.64,0.35,0.75,0l11.31-33.47c0.12-0.29,0.41-0.52,0.75-0.52h8.18
			C654.37,519.73,654.72,520.08,654.72,520.54z"/>
		<path d="M711.21,540.03c0,11.48-9.34,20.82-20.82,20.82c-11.48,0-20.82-9.34-20.82-20.82c0-11.48,9.34-20.82,20.82-20.82
			C701.88,519.21,711.21,528.54,711.21,540.03z M705.41,540.03c0-8.29-6.73-15.02-15.02-15.02s-15.02,6.73-15.02,15.02
			s6.73,15.02,15.02,15.02S705.41,548.32,705.41,540.03z"/>
		<path d="M760.05,520.83l-15.31,38.92c-0.12,0.35-0.41,0.52-0.75,0.52h-6.44c-0.29,0-0.58-0.17-0.75-0.52l-15.54-38.92
			c-0.23-0.52,0.17-1.1,0.75-1.1h4.41c0.29,0,0.64,0.23,0.75,0.52l13.63,34.34c0.06,0.17,0.29,0.17,0.35,0l13.05-34.34
			c0.12-0.29,0.41-0.52,0.75-0.52h4.35C759.88,519.73,760.22,520.31,760.05,520.83z"/>
		<path d="M779.36,520.54v38.92c0,0.46-0.35,0.81-0.81,0.81h-4.18c-0.46,0-0.81-0.35-0.81-0.81v-38.92c0-0.46,0.35-0.81,0.81-0.81
			h4.18C779.02,519.73,779.36,520.08,779.36,520.54z"/>
		<path d="M839.22,520.54v38.92c0,0.46-0.35,0.81-0.81,0.81h-4.18c-0.46,0-0.81-0.35-0.81-0.81v-32.31c0-0.46-0.64-0.52-0.75-0.12
			l-10.96,32.71c-0.12,0.29-0.46,0.52-0.81,0.52h-6.26c-0.29,0-0.64-0.23-0.75-0.52l-11.25-32.71c-0.12-0.41-0.75-0.35-0.75,0.12
			v32.31c0,0.46-0.35,0.81-0.81,0.81h-4.18c-0.46,0-0.81-0.35-0.81-0.81v-38.92c0-0.46,0.35-0.81,0.81-0.81h8.24
			c0.35,0,0.64,0.23,0.75,0.52l11.54,33.47c0.12,0.35,0.64,0.35,0.75,0l11.31-33.47c0.12-0.29,0.41-0.52,0.75-0.52h8.18
			C838.87,519.73,839.22,520.08,839.22,520.54z"/>
		<path d="M861.72,520.54v38.92c0,0.46-0.35,0.81-0.81,0.81h-4.18c-0.46,0-0.81-0.35-0.81-0.81v-38.92c0-0.46,0.35-0.81,0.81-0.81
			h4.18C861.38,519.73,861.72,520.08,861.72,520.54z"/>
		<path d="M908.53,555.86v3.6c0,0.46-0.35,0.81-0.81,0.81h-26.85c-1.33,0-2.44-1.1-2.44-2.44v-35.67c0-1.33,1.1-2.44,2.44-2.44
			h26.27c0.46,0,0.81,0.35,0.81,0.81v3.6c0,0.46-0.35,0.81-0.81,0.81h-22.1c-0.46,0-0.81,0.35-0.81,0.81v10.27
			c0,0.41,0.35,0.81,0.81,0.81h18.62c0.46,0,0.81,0.35,0.81,0.75v3.65c0,0.41-0.35,0.75-0.81,0.75h-18.62
			c-0.46,0-0.81,0.41-0.81,0.81v11.43c0,0.46,0.35,0.81,0.81,0.81h22.68C908.18,555.05,908.53,555.4,908.53,555.86z"/>
		<path d="M955.86,520.54v38.92c0,0.46-0.35,0.81-0.81,0.81h-6.32c-0.58,0-1.16-0.29-1.45-0.81l-17.57-31.38
			c-0.23-0.35-0.75-0.23-0.75,0.17v31.2c0,0.46-0.35,0.81-0.81,0.81h-4.18c-0.46,0-0.81-0.35-0.81-0.81v-38.92
			c0-0.46,0.35-0.81,0.81-0.81h6.38c0.58,0,1.1,0.29,1.39,0.81l17.57,31.44c0.23,0.35,0.75,0.23,0.75-0.17v-31.26
			c0-0.46,0.41-0.81,0.81-0.81h4.18C955.51,519.73,955.86,520.08,955.86,520.54z"/>
		<path d="M1003.99,520.54v3.6c0,0.46-0.41,0.81-0.81,0.81h-12.88c-0.46,0-0.81,0.35-0.81,0.81v33.75c0,0.41-0.35,0.75-0.81,0.75
			h-4.18c-0.46,0-0.81-0.35-0.81-0.75v-33.75c0-0.46-0.35-0.81-0.81-0.81h-12.88c-0.46,0-0.81-0.35-0.81-0.81v-3.6
			c0-0.46,0.35-0.81,0.81-0.81h33.18C1003.59,519.73,1003.99,520.08,1003.99,520.54z"/>
		<path d="M1054.57,540.03c0,11.48-9.34,20.82-20.82,20.82c-11.48,0-20.82-9.34-20.82-20.82c0-11.48,9.34-20.82,20.82-20.82
			C1045.23,519.21,1054.57,528.54,1054.57,540.03z M1048.77,540.03c0-8.29-6.73-15.02-15.02-15.02s-15.02,6.73-15.02,15.02
			s6.73,15.02,15.02,15.02S1048.77,548.32,1048.77,540.03z"/>
	</g>
</g>
</svg>
