<?xml version="1.0" encoding="utf-8"?>
<!-- Generator: Adobe Illustrator 24.3.0, SVG Export Plug-In . SVG Version: 6.00 Build 0)  -->
<svg version="1.1" id="Capa_1" xmlns="http://www.w3.org/2000/svg" xmlns:xlink="http://www.w3.org/1999/xlink" x="0px" y="0px"
	 viewBox="0 0 1080 1080" style="enable-background:new 0 0 1080 1080;" xml:space="preserve">
<g>
	<g>
		<path d="M176.99,362.43c17.77,15.39,26.66,35.18,26.66,59.37v258.37c0,1.47,0.46,2.75,1.37,3.85c0.91,1.1,1.93,1.65,3.02,1.65
			c1.1,0,2.11-0.55,3.02-1.65c0.91-1.1,1.37-2.38,1.37-3.85V411.36c0-21.25,5.31-38.02,15.94-50.3
			c10.62-12.28,25.1-18.42,43.43-18.42c18.32,0,32.79,6.14,43.43,18.42c10.62,12.28,15.94,29.05,15.94,50.3V732.4h-54.97V403.11
			c0-1.46-0.46-2.75-1.37-3.85c-0.92-1.1-1.92-1.65-3.02-1.65c-1.1,0-2.11,0.55-3.02,1.65c-0.92,1.1-1.37,2.39-1.37,3.85v268.82
			c0,21.26-5.32,38.02-15.94,50.3c-10.63,12.28-25.11,18.42-43.43,18.42c-18.33,0-32.8-6.14-43.43-18.42
			c-10.64-12.27-15.94-29.04-15.94-50.3V435.55c0-12.09-3.76-21.99-11.27-29.69c-7.52-7.69-17.14-11.54-28.86-11.54
			c-11.73,0-21.26,3.85-28.58,11.54c-7.34,7.7-11,17.59-11,29.69V732.4H14V421.8c0-24.19,8.8-43.98,26.38-59.37
			c17.59-15.39,40.31-23.09,68.17-23.09C136.4,339.34,159.21,347.04,176.99,362.43z"/>
	</g>
	<g>
		<path d="M1003.93,350.04H1066c0,126.31,0,260.4,0,389.83h-75.92V517.87l-70.77,115.44l-44.52,72.63l-44.52-72.63l-70.77-115.44
			v222.01h-75.92c0-129.44,0-263.53,0-389.83h62.08l13.84,22.57l115.3,188.07l115.3-188.07L1003.93,350.04L1003.93,350.04z"/>
	</g>
	<g>
		<path d="M394.38,726.24l-41.12-360.35c-0.48-4.22,0.11-7.63,1.78-10.24c1.67-2.6,4.09-3.92,7.28-3.94l229.42-1.18
			c3.18-0.02,5.95,1.28,8.27,3.87c2.34,2.6,3.8,6.02,4.4,10.26l7.85,55.25c0.6,4.24,0.1,7.66-1.51,10.28
			c-1.61,2.62-4.02,3.93-7.24,3.94l-168.13,0.63c-3.22,0.01-5.65,1.32-7.32,3.92c-1.66,2.61-2.24,6.03-1.73,10.25l4.96,40.95
			c0.51,4.23,1.92,7.64,4.23,10.23c2.32,2.6,5.09,3.89,8.33,3.88l169.44-0.44c3.24-0.01,6.05,1.29,8.41,3.89
			c2.37,2.61,3.85,6.04,4.45,10.27l7.92,55.74c0.6,4.24,0.09,7.66-1.56,10.27c-1.64,2.62-4.1,3.92-7.37,3.92l-171.03,0.21
			c-3.27,0-5.75,1.31-7.46,3.91c-1.69,2.61-2.29,6.02-1.78,10.24l4.96,40.95c0.51,4.23,1.94,7.64,4.28,10.24
			c2.35,2.6,5.17,3.9,8.47,3.9l172.34-0.02c3.3,0,6.15,1.3,8.54,3.91c2.4,2.61,3.9,6.04,4.5,10.27l7.86,55.26
			c0.6,4.24,0.07,7.66-1.61,10.26c-1.67,2.61-4.18,3.91-7.5,3.9l-239.59-0.29c-3.32,0-6.16-1.3-8.51-3.91
			C396.27,733.87,394.86,730.46,394.38,726.24z"/>
	</g>
</g>
</svg>
